# Blender v2.74 (sub 0) OBJ File: ''
# www.blender.org
o Sphere
v -0.309017 0.951057 0.000000
v -0.309017 -0.951057 0.000000
v -0.250000 0.951057 -0.181636
v -0.475528 0.809017 -0.345492
v -0.654508 0.587785 -0.475528
v -0.769421 0.309017 -0.559017
v -0.809017 -0.000000 -0.587785
v -0.769421 -0.309017 -0.559017
v -0.654508 -0.587785 -0.475528
v -0.475528 -0.809017 -0.345492
v -0.250000 -0.951057 -0.181636
v -0.095491 0.951057 -0.293893
v -0.181635 0.809017 -0.559017
v -0.250000 0.587785 -0.769421
v -0.293892 0.309017 -0.904509
v -0.309017 -0.000000 -0.951057
v -0.293892 -0.309017 -0.904509
v -0.250000 -0.587785 -0.769421
v -0.181635 -0.809017 -0.559017
v -0.095491 -0.951057 -0.293893
v 0.095492 0.951057 -0.293893
v 0.181636 0.809017 -0.559017
v 0.250000 0.587785 -0.769421
v 0.293893 0.309017 -0.904509
v 0.309017 -0.000000 -0.951057
v 0.293893 -0.309017 -0.904509
v 0.250000 -0.587785 -0.769421
v 0.181636 -0.809017 -0.559017
v 0.095492 -0.951057 -0.293893
v 0.250001 0.951057 -0.181636
v 0.475529 0.809017 -0.345492
v 0.654509 0.587785 -0.475528
v 0.769421 0.309017 -0.559017
v 0.809017 -0.000000 -0.587785
v 0.769421 -0.309017 -0.559017
v 0.654509 -0.587785 -0.475528
v 0.475529 -0.809017 -0.345492
v 0.250000 -0.951057 -0.181636
v 0.309018 0.951057 -0.000000
v 0.587786 0.809017 -0.000000
v 0.809018 0.587785 0.000000
v 0.951057 0.309017 -0.000000
v 1.000001 -0.000000 -0.000000
v 0.951057 -0.309017 0.000000
v 0.809018 -0.587785 0.000000
v 0.587786 -0.809017 -0.000000
v 0.309017 -0.951057 -0.000000
v 0.250001 0.951057 0.181636
v 0.475529 0.809017 0.345492
v 0.654509 0.587785 0.475529
v 0.769422 0.309017 0.559017
v 0.809018 -0.000000 0.587785
v 0.769421 -0.309017 0.559017
v 0.654509 -0.587785 0.475529
v 0.475529 -0.809017 0.345492
v 0.250000 -0.951057 0.181636
v 0.095492 0.951057 0.293893
v 0.181636 0.809017 0.559017
v 0.250000 0.587785 0.769421
v 0.293893 0.309017 0.904509
v 0.309018 -0.000000 0.951057
v 0.293893 -0.309017 0.904509
v 0.250000 -0.587785 0.769421
v 0.181636 -0.809017 0.559017
v 0.095492 -0.951057 0.293893
v -0.095491 0.951057 0.293893
v -0.181635 0.809017 0.559017
v -0.250000 0.587785 0.769421
v -0.293892 0.309017 0.904509
v -0.309017 -0.000000 0.951057
v -0.293892 -0.309017 0.904509
v -0.250000 -0.587785 0.769421
v -0.181635 -0.809017 0.559017
v -0.095491 -0.951057 0.293893
v 0.000000 1.000000 0.000000
v -0.250000 0.951057 0.181636
v -0.475528 0.809017 0.345492
v -0.654509 0.587785 0.475529
v -0.769421 0.309017 0.559017
v -0.809017 -0.000000 0.587786
v -0.769421 -0.309017 0.559017
v -0.654509 -0.587785 0.475529
v -0.475528 -0.809017 0.345492
v -0.250000 -0.951057 0.181636
v 0.000000 -1.000000 0.000000
v -0.587785 0.809017 0.000000
v -0.809017 0.587785 0.000000
v -0.951057 0.309017 0.000000
v -1.000000 -0.000000 0.000000
v -0.951057 -0.309017 -0.000000
v -0.809017 -0.587785 0.000000
v -0.587785 -0.809017 0.000000
vt 0.248361 0.712430
vt 0.234406 0.672985
vt 0.285108 0.670969
vt 0.219830 0.627823
vt 0.299862 0.625865
vt 0.203102 0.572409
vt 0.318900 0.571201
vt 0.181664 0.500103
vt 0.344057 0.500103
vt 0.075495 0.251955
vt 0.112428 0.361712
vt 0.050285 0.404445
vt 0.133366 0.253169
vt 0.159960 0.328679
vt 0.180822 0.253263
vt 0.198408 0.300860
vt 0.222649 0.252179
vt 0.231610 0.275399
vt 0.273213 0.711083
vt 0.327313 0.699140
vt 0.365760 0.671321
vt 0.413293 0.638288
vt 0.475436 0.595555
vt 0.206821 0.428799
vt 0.181664 0.499897
vt 0.225859 0.374135
vt 0.240612 0.329031
vt 0.252507 0.288917
vt 0.344898 0.746737
vt 0.303071 0.747821
vt 0.392354 0.746831
vt 0.450225 0.748045
vt 0.525618 0.750000
vt 0.322619 0.427591
vt 0.344057 0.499898
vt 0.305890 0.372177
vt 0.291314 0.327014
vt 0.277359 0.287570
vt 0.331148 0.795581
vt 0.296673 0.771872
vt 0.369486 0.823551
vt 0.415591 0.858549
vt 0.475436 0.904445
vt 0.415591 0.358549
vt 0.475436 0.404445
vt 0.369486 0.323551
vt 0.331148 0.295581
vt 0.296673 0.271872
vt 0.291314 0.827015
vt 0.277359 0.787570
vt 0.305890 0.872177
vt 0.322619 0.927591
vt 0.344057 0.999897
vt 0.450225 0.248045
vt 0.525618 0.250000
vt 0.392354 0.246831
vt 0.344898 0.246737
vt 0.303072 0.247821
vt 0.240612 0.829031
vt 0.225859 0.874135
vt 0.206821 0.928799
vt 0.181664 0.999897
vt 0.413293 0.138288
vt 0.475436 0.095555
vt 0.365760 0.171321
vt 0.327313 0.199140
vt 0.294111 0.224601
vt 0.198408 0.800860
vt 0.231610 0.775399
vt 0.159960 0.828679
vt 0.112428 0.861712
vt 0.050285 0.904445
vt 0.318900 0.071201
vt 0.344057 0.000102
vt 0.299862 0.125865
vt 0.285109 0.170969
vt 0.273214 0.211083
vt 0.180822 0.753263
vt 0.222649 0.752180
vt 0.133366 0.753169
vt 0.075495 0.751955
vt 0.000102 0.750000
vt 0.203102 0.072409
vt 0.181664 0.000102
vt 0.219830 0.127823
vt 0.234406 0.172985
vt 0.248362 0.212430
vt 0.156235 0.676449
vt 0.194572 0.704419
vt 0.110130 0.641451
vt 0.050285 0.595555
vt 0.110130 0.141451
vt 0.050285 0.095555
vt 0.156235 0.176449
vt 0.194573 0.204419
vt 0.262860 0.750000
vt 0.229048 0.728128
vt 0.229048 0.228128
vt 0.262860 0.250000
vt 0.294111 0.724601
vt 0.252507 0.788917
vt 0.000102 0.250000
vn -0.277600 -0.881500 -0.382100
vn -0.425900 -0.689200 -0.586200
vn -0.529000 -0.436100 -0.728000
vn -0.581200 -0.149000 -0.800000
vn -0.581200 0.149000 -0.800000
vn -0.529000 0.436100 -0.728000
vn -0.425900 0.689200 -0.586200
vn -0.277600 0.881500 -0.382100
vn 0.000000 -0.881500 -0.472200
vn 0.000000 -0.689200 -0.724600
vn 0.000000 -0.436100 -0.899900
vn 0.000000 -0.149000 -0.988800
vn 0.000000 0.149000 -0.988800
vn 0.000000 0.436100 -0.899900
vn 0.000000 0.689200 -0.724600
vn 0.000000 0.881500 -0.472200
vn 0.277600 -0.881500 -0.382100
vn 0.425900 -0.689200 -0.586200
vn 0.529000 -0.436100 -0.728000
vn 0.581200 -0.149000 -0.800000
vn 0.581200 0.149000 -0.800000
vn 0.529000 0.436100 -0.728000
vn 0.425900 0.689200 -0.586200
vn 0.277600 0.881500 -0.382100
vn 0.449100 -0.881500 -0.145900
vn 0.689200 -0.689200 -0.223900
vn 0.855900 -0.436100 -0.278100
vn 0.940400 -0.149000 -0.305600
vn 0.940400 0.149000 -0.305600
vn 0.855900 0.436100 -0.278100
vn 0.689200 0.689200 -0.223900
vn 0.449100 0.881500 -0.145900
vn 0.449100 -0.881500 0.145900
vn 0.689200 -0.689200 0.223900
vn 0.855900 -0.436100 0.278100
vn 0.940400 -0.149000 0.305600
vn 0.940400 0.149000 0.305600
vn 0.855900 0.436100 0.278100
vn 0.689200 0.689200 0.223900
vn 0.449100 0.881500 0.145900
vn 0.277600 -0.881500 0.382100
vn 0.425900 -0.689200 0.586200
vn 0.529000 -0.436100 0.728000
vn 0.581200 -0.149000 0.800000
vn 0.581200 0.149000 0.800000
vn 0.529000 0.436100 0.728000
vn 0.425900 0.689200 0.586200
vn 0.277600 0.881500 0.382100
vn 0.000000 -0.881500 0.472200
vn 0.000000 -0.689200 0.724600
vn 0.000000 -0.436100 0.899900
vn 0.000000 -0.149000 0.988800
vn 0.000000 0.149000 0.988800
vn 0.000000 0.436100 0.899900
vn 0.000000 0.689200 0.724600
vn 0.000000 0.881500 0.472200
vn -0.277600 -0.881500 0.382100
vn -0.425900 -0.689200 0.586200
vn -0.529000 -0.436100 0.728000
vn -0.581200 -0.149000 0.800000
vn -0.581200 0.149000 0.800000
vn -0.529000 0.436100 0.728000
vn -0.425900 0.689200 0.586200
vn -0.277600 0.881500 0.382100
vn -0.689200 -0.689200 0.223900
vn -0.855900 -0.436100 0.278100
vn -0.940400 -0.149000 0.305600
vn -0.940400 0.149000 0.305600
vn -0.855900 0.436100 0.278100
vn -0.689200 0.689200 0.223900
vn -0.156200 -0.986400 -0.050800
vn -0.449100 -0.881500 -0.145900
vn -0.689200 -0.689200 -0.223900
vn -0.855900 -0.436100 -0.278100
vn -0.940400 -0.149000 -0.305600
vn -0.940400 0.149000 -0.305600
vn -0.855900 0.436100 -0.278100
vn -0.689200 0.689200 -0.223900
vn -0.449100 0.881500 -0.145900
vn -0.156200 0.986400 -0.050800
vn -0.096600 -0.986400 -0.132900
vn -0.096600 0.986400 -0.132900
vn 0.000000 -0.986400 -0.164300
vn 0.000000 0.986400 -0.164300
vn 0.096600 -0.986400 -0.132900
vn 0.096600 0.986400 -0.132900
vn 0.156200 -0.986400 -0.050800
vn 0.156200 0.986400 -0.050800
vn 0.156200 -0.986400 0.050800
vn 0.156200 0.986400 0.050800
vn 0.096600 -0.986400 0.132900
vn 0.096600 0.986400 0.132900
vn 0.000000 -0.986400 0.164300
vn 0.000000 0.986400 0.164300
vn -0.096600 -0.986400 0.132900
vn -0.096600 0.986400 0.132900
vn -0.156200 -0.986400 0.050800
vn -0.449100 -0.881500 0.145900
vn -0.449100 0.881500 0.145900
vn -0.156200 0.986400 0.050800
s off
f 11/1/1 10/2/1 19/3/1
f 9/4/2 18/5/2 19/3/2
f 8/6/3 17/7/3 18/5/3
f 7/8/4 16/9/4 17/7/4
f 6/10/5 15/11/5 16/12/5
f 5/13/6 14/14/6 15/11/6
f 4/15/7 13/16/7 14/14/7
f 3/17/8 12/18/8 13/16/8
f 20/19/9 19/3/9 28/20/9
f 18/5/10 27/21/10 28/20/10
f 17/7/11 26/22/11 27/21/11
f 17/7/12 16/9/12 25/23/12
f 15/11/13 24/24/13 25/25/13
f 14/14/14 23/26/14 24/24/14
f 13/16/15 22/27/15 23/26/15
f 12/18/16 21/28/16 22/27/16
f 28/20/17 37/29/17 38/30/17
f 27/21/18 36/31/18 37/29/18
f 26/22/19 35/32/19 36/31/19
f 26/22/20 25/23/20 34/33/20
f 24/24/21 33/34/21 34/35/21
f 23/26/22 32/36/22 33/34/22
f 23/26/23 22/27/23 31/37/23
f 21/28/24 30/38/24 31/37/24
f 37/29/25 46/39/25 47/40/25
f 36/31/26 45/41/26 46/39/26
f 35/32/27 44/42/27 45/41/27
f 35/32/28 34/33/28 43/43/28
f 33/34/29 42/44/29 43/45/29
f 32/36/30 41/46/30 42/44/30
f 32/36/31 31/37/31 40/47/31
f 30/38/32 39/48/32 40/47/32
f 46/39/33 55/49/33 56/50/33
f 45/41/34 54/51/34 55/49/34
f 44/42/35 53/52/35 54/51/35
f 44/42/36 43/43/36 52/53/36
f 42/44/37 51/54/37 52/55/37
f 41/46/38 50/56/38 51/54/38
f 41/46/39 40/47/39 49/57/39
f 39/48/40 48/58/40 49/57/40
f 56/50/41 55/49/41 64/59/41
f 54/51/42 63/60/42 64/59/42
f 53/52/43 62/61/43 63/60/43
f 53/52/44 52/53/44 61/62/44
f 51/54/45 60/63/45 61/64/45
f 50/56/46 59/65/46 60/63/46
f 50/56/47 49/57/47 58/66/47
f 48/58/48 57/67/48 58/66/48
f 64/59/49 73/68/49 74/69/49
f 63/60/50 72/70/50 73/68/50
f 62/61/51 71/71/51 72/70/51
f 62/61/52 61/62/52 70/72/52
f 60/63/53 69/73/53 70/74/53
f 59/65/54 68/75/54 69/73/54
f 59/65/55 58/66/55 67/76/55
f 57/67/56 66/77/56 67/76/56
f 73/68/57 83/78/57 84/79/57
f 72/70/58 82/80/58 83/78/58
f 71/71/59 81/81/59 82/80/59
f 71/71/60 70/72/60 80/82/60
f 69/73/61 79/83/61 80/84/61
f 68/75/62 78/85/62 79/83/62
f 68/75/63 67/76/63 77/86/63
f 66/77/64 76/87/64 77/86/64
f 82/80/65 91/88/65 92/89/65
f 81/81/66 90/90/66 91/88/66
f 81/81/67 80/82/67 89/91/67
f 79/83/68 88/92/68 89/93/68
f 79/83/69 78/85/69 87/94/69
f 78/85/70 77/86/70 86/95/70
f 85/96/71 2/97/71 11/1/71
f 2/97/72 92/89/72 10/2/72
f 92/89/73 91/88/73 9/4/73
f 91/88/74 90/90/74 8/6/74
f 89/91/75 7/8/75 8/6/75
f 89/93/76 88/92/76 6/10/76
f 87/94/77 5/13/77 6/10/77
f 87/94/78 86/95/78 4/15/78
f 1/98/79 3/17/79 4/15/79
f 1/98/80 75/99/80 3/17/80
f 85/96/81 11/1/81 20/19/81
f 3/17/82 75/99/82 12/18/82
f 85/96/83 20/19/83 29/100/83
f 12/18/84 75/99/84 21/28/84
f 85/96/85 29/100/85 38/30/85
f 21/28/86 75/99/86 30/38/86
f 85/96/87 38/30/87 47/40/87
f 30/38/88 75/99/88 39/48/88
f 85/96/89 47/40/89 56/50/89
f 39/48/90 75/99/90 48/58/90
f 85/96/91 56/50/91 65/101/91
f 48/58/92 75/99/92 57/67/92
f 85/96/93 65/101/93 74/69/93
f 57/67/94 75/99/94 66/77/94
f 85/96/95 74/69/95 84/79/95
f 66/77/96 75/99/96 76/87/96
f 85/96/97 84/79/97 2/97/97
f 84/79/98 83/78/98 92/89/98
f 76/87/99 1/98/99 86/95/99
f 76/87/100 75/99/100 1/98/100
f 20/19/1 11/1/1 19/3/1
f 10/2/2 9/4/2 19/3/2
f 9/4/3 8/6/3 18/5/3
f 8/6/4 7/8/4 17/7/4
f 7/102/5 6/10/5 16/12/5
f 6/10/6 5/13/6 15/11/6
f 5/13/7 4/15/7 14/14/7
f 4/15/8 3/17/8 13/16/8
f 29/100/9 20/19/9 28/20/9
f 19/3/10 18/5/10 28/20/10
f 18/5/11 17/7/11 27/21/11
f 26/22/12 17/7/12 25/23/12
f 16/12/13 15/11/13 25/25/13
f 15/11/14 14/14/14 24/24/14
f 14/14/15 13/16/15 23/26/15
f 13/16/16 12/18/16 22/27/16
f 29/100/17 28/20/17 38/30/17
f 28/20/18 27/21/18 37/29/18
f 27/21/19 26/22/19 36/31/19
f 35/32/20 26/22/20 34/33/20
f 25/25/21 24/24/21 34/35/21
f 24/24/22 23/26/22 33/34/22
f 32/36/23 23/26/23 31/37/23
f 22/27/24 21/28/24 31/37/24
f 38/30/25 37/29/25 47/40/25
f 37/29/26 36/31/26 46/39/26
f 36/31/27 35/32/27 45/41/27
f 44/42/28 35/32/28 43/43/28
f 34/35/29 33/34/29 43/45/29
f 33/34/30 32/36/30 42/44/30
f 41/46/31 32/36/31 40/47/31
f 31/37/32 30/38/32 40/47/32
f 47/40/33 46/39/33 56/50/33
f 46/39/34 45/41/34 55/49/34
f 45/41/35 44/42/35 54/51/35
f 53/52/36 44/42/36 52/53/36
f 43/45/37 42/44/37 52/55/37
f 42/44/38 41/46/38 51/54/38
f 50/56/39 41/46/39 49/57/39
f 40/47/40 39/48/40 49/57/40
f 65/101/41 56/50/41 64/59/41
f 55/49/42 54/51/42 64/59/42
f 54/51/43 53/52/43 63/60/43
f 62/61/44 53/52/44 61/62/44
f 52/55/45 51/54/45 61/64/45
f 51/54/46 50/56/46 60/63/46
f 59/65/47 50/56/47 58/66/47
f 49/57/48 48/58/48 58/66/48
f 65/101/49 64/59/49 74/69/49
f 64/59/50 63/60/50 73/68/50
f 63/60/51 62/61/51 72/70/51
f 71/71/52 62/61/52 70/72/52
f 61/64/53 60/63/53 70/74/53
f 60/63/54 59/65/54 69/73/54
f 68/75/55 59/65/55 67/76/55
f 58/66/56 57/67/56 67/76/56
f 74/69/57 73/68/57 84/79/57
f 73/68/58 72/70/58 83/78/58
f 72/70/59 71/71/59 82/80/59
f 81/81/60 71/71/60 80/82/60
f 70/74/61 69/73/61 80/84/61
f 69/73/62 68/75/62 79/83/62
f 78/85/63 68/75/63 77/86/63
f 67/76/64 66/77/64 77/86/64
f 83/78/65 82/80/65 92/89/65
f 82/80/66 81/81/66 91/88/66
f 90/90/67 81/81/67 89/91/67
f 80/84/68 79/83/68 89/93/68
f 88/92/69 79/83/69 87/94/69
f 87/94/70 78/85/70 86/95/70
f 11/1/72 2/97/72 10/2/72
f 10/2/73 92/89/73 9/4/73
f 9/4/74 91/88/74 8/6/74
f 90/90/75 89/91/75 8/6/75
f 7/102/76 89/93/76 6/10/76
f 88/92/77 87/94/77 6/10/77
f 5/13/78 87/94/78 4/15/78
f 86/95/79 1/98/79 4/15/79
f 2/97/98 84/79/98 92/89/98
f 77/86/99 76/87/99 86/95/99
